<mxfile host="app.diagrams.net" modified="2023-09-06T23:47:42.743Z" agent="Mozilla/5.0 (Windows NT 10.0; Win64; x64) AppleWebKit/537.36 (KHTML, like Gecko) Chrome/116.0.0.0 Safari/537.36" etag="IkwEC28G5peHhmF9_gqx" version="21.7.2" type="device">
  <diagram name="Page-1" id="03018318-947c-dd8e-b7a3-06fadd420f32">
    <mxGraphModel dx="1687" dy="929" grid="1" gridSize="10" guides="1" tooltips="1" connect="1" arrows="1" fold="1" page="1" pageScale="1" pageWidth="1100" pageHeight="850" background="none" math="0" shadow="0">
      <root>
        <mxCell id="0" />
        <mxCell id="1" parent="0" />
        <mxCell id="677b7b8949515195-1" value="" style="whiteSpace=wrap;html=1;rounded=0;shadow=0;labelBackgroundColor=none;strokeColor=#000000;strokeWidth=1;fillColor=none;fontFamily=Verdana;fontSize=12;fontColor=#000000;align=center;comic=1;" parent="1" vertex="1">
          <mxGeometry x="20" y="20" width="1060" height="810" as="geometry" />
        </mxCell>
        <mxCell id="677b7b8949515195-16" value="" style="verticalLabelPosition=bottom;shadow=0;dashed=0;align=center;html=1;verticalAlign=top;strokeWidth=1;shape=mxgraph.mockup.graphics.simpleIcon;strokeColor=#999999;rounded=0;labelBackgroundColor=none;fontFamily=Verdana;fontSize=14;fontColor=#000000;comic=1;" parent="1" vertex="1">
          <mxGeometry x="43" y="40" width="1017" height="770" as="geometry" />
        </mxCell>
        <mxCell id="71NfUQhNIwmWo0_34UYC-1" value="&quot;I got bitten by a strange green creature in the forest... I think I&#39;m growing scales!&quot;" style="strokeWidth=1;shadow=0;dashed=0;align=center;html=1;shape=mxgraph.mockup.containers.rrect;rSize=0;strokeColor=#666666;fontColor=#666666;fontSize=17;verticalAlign=top;whiteSpace=wrap;fillColor=#ffffff;spacingTop=32;" vertex="1" parent="1">
          <mxGeometry x="160" y="200" width="250" height="160" as="geometry" />
        </mxCell>
        <mxCell id="71NfUQhNIwmWo0_34UYC-2" value="Customer" style="strokeWidth=1;shadow=0;dashed=0;align=center;html=1;shape=mxgraph.mockup.containers.rrect;rSize=0;fontSize=17;fontColor=#666666;strokeColor=#666666;align=left;spacingLeft=8;fillColor=#ffffff;resizeWidth=1;whiteSpace=wrap;" vertex="1" parent="71NfUQhNIwmWo0_34UYC-1">
          <mxGeometry width="250" height="30" relative="1" as="geometry" />
        </mxCell>
        <mxCell id="71NfUQhNIwmWo0_34UYC-3" value="" style="shape=ellipse;strokeColor=#008cff;resizable=0;fillColor=none;html=1;" vertex="1" parent="71NfUQhNIwmWo0_34UYC-2">
          <mxGeometry x="1" y="0.5" width="20" height="20" relative="1" as="geometry">
            <mxPoint x="-25" y="-10" as="offset" />
          </mxGeometry>
        </mxCell>
        <mxCell id="71NfUQhNIwmWo0_34UYC-31" value="Sell" style="strokeWidth=1;shadow=0;dashed=0;align=center;html=1;shape=mxgraph.mockup.containers.rrect;rSize=0;fontSize=16;fontColor=#666666;strokeColor=#c4c4c4;resizable=0;whiteSpace=wrap;fillColor=#ffffff;" vertex="1" parent="71NfUQhNIwmWo0_34UYC-1">
          <mxGeometry x="0.5" y="1" width="120" height="25" relative="1" as="geometry">
            <mxPoint x="-60" y="-49" as="offset" />
          </mxGeometry>
        </mxCell>
        <mxCell id="71NfUQhNIwmWo0_34UYC-5" value="Which potion will you offer?" style="shape=table;startSize=30;container=1;collapsible=0;childLayout=tableLayout;strokeColor=default;fontSize=16;" vertex="1" parent="1">
          <mxGeometry x="160" y="360" width="250" height="110" as="geometry" />
        </mxCell>
        <mxCell id="71NfUQhNIwmWo0_34UYC-6" value="" style="shape=tableRow;horizontal=0;startSize=0;swimlaneHead=0;swimlaneBody=0;strokeColor=inherit;top=0;left=0;bottom=0;right=0;collapsible=0;dropTarget=0;fillColor=none;points=[[0,0.5],[1,0.5]];portConstraint=eastwest;fontSize=16;" vertex="1" parent="71NfUQhNIwmWo0_34UYC-5">
          <mxGeometry y="30" width="250" height="80" as="geometry" />
        </mxCell>
        <mxCell id="71NfUQhNIwmWo0_34UYC-7" value="" style="shape=partialRectangle;html=1;whiteSpace=wrap;connectable=0;overflow=hidden;top=0;left=0;bottom=0;right=0;pointerEvents=1;fontSize=16;fillColor=#000000;strokeColor=#666666;gradientColor=none;" vertex="1" parent="71NfUQhNIwmWo0_34UYC-6">
          <mxGeometry width="83" height="80" as="geometry">
            <mxRectangle width="83" height="80" as="alternateBounds" />
          </mxGeometry>
        </mxCell>
        <mxCell id="71NfUQhNIwmWo0_34UYC-8" value="" style="shape=partialRectangle;html=1;whiteSpace=wrap;connectable=0;strokeColor=inherit;overflow=hidden;fillColor=none;top=0;left=0;bottom=0;right=0;pointerEvents=1;fontSize=16;" vertex="1" parent="71NfUQhNIwmWo0_34UYC-6">
          <mxGeometry x="83" width="84" height="80" as="geometry">
            <mxRectangle width="84" height="80" as="alternateBounds" />
          </mxGeometry>
        </mxCell>
        <mxCell id="71NfUQhNIwmWo0_34UYC-9" value="" style="shape=partialRectangle;html=1;whiteSpace=wrap;connectable=0;overflow=hidden;top=0;left=0;bottom=0;right=0;pointerEvents=1;fontSize=16;fillColor=#000000;strokeColor=#666666;gradientColor=none;" vertex="1" parent="71NfUQhNIwmWo0_34UYC-6">
          <mxGeometry x="167" width="83" height="80" as="geometry">
            <mxRectangle width="83" height="80" as="alternateBounds" />
          </mxGeometry>
        </mxCell>
        <mxCell id="71NfUQhNIwmWo0_34UYC-33" value="" style="group" vertex="1" connectable="0" parent="1">
          <mxGeometry x="680" y="200" width="250" height="270" as="geometry" />
        </mxCell>
        <mxCell id="71NfUQhNIwmWo0_34UYC-18" value="Inventory" style="shape=table;startSize=30;container=1;collapsible=0;childLayout=tableLayout;strokeColor=default;fontSize=16;" vertex="1" parent="71NfUQhNIwmWo0_34UYC-33">
          <mxGeometry width="250" height="270" as="geometry" />
        </mxCell>
        <mxCell id="71NfUQhNIwmWo0_34UYC-19" value="" style="shape=tableRow;horizontal=0;startSize=0;swimlaneHead=0;swimlaneBody=0;strokeColor=inherit;top=0;left=0;bottom=0;right=0;collapsible=0;dropTarget=0;fillColor=none;points=[[0,0.5],[1,0.5]];portConstraint=eastwest;fontSize=16;" vertex="1" parent="71NfUQhNIwmWo0_34UYC-18">
          <mxGeometry y="30" width="250" height="80" as="geometry" />
        </mxCell>
        <mxCell id="71NfUQhNIwmWo0_34UYC-20" value="" style="shape=partialRectangle;html=1;whiteSpace=wrap;connectable=0;strokeColor=inherit;overflow=hidden;fillColor=none;top=0;left=0;bottom=0;right=0;pointerEvents=1;fontSize=16;" vertex="1" parent="71NfUQhNIwmWo0_34UYC-19">
          <mxGeometry width="83" height="80" as="geometry">
            <mxRectangle width="83" height="80" as="alternateBounds" />
          </mxGeometry>
        </mxCell>
        <mxCell id="71NfUQhNIwmWo0_34UYC-21" value="" style="shape=partialRectangle;html=1;whiteSpace=wrap;connectable=0;strokeColor=inherit;overflow=hidden;fillColor=none;top=0;left=0;bottom=0;right=0;pointerEvents=1;fontSize=16;" vertex="1" parent="71NfUQhNIwmWo0_34UYC-19">
          <mxGeometry x="83" width="84" height="80" as="geometry">
            <mxRectangle width="84" height="80" as="alternateBounds" />
          </mxGeometry>
        </mxCell>
        <mxCell id="71NfUQhNIwmWo0_34UYC-22" value="" style="shape=partialRectangle;html=1;whiteSpace=wrap;connectable=0;strokeColor=inherit;overflow=hidden;fillColor=none;top=0;left=0;bottom=0;right=0;pointerEvents=1;fontSize=16;" vertex="1" parent="71NfUQhNIwmWo0_34UYC-19">
          <mxGeometry x="167" width="83" height="80" as="geometry">
            <mxRectangle width="83" height="80" as="alternateBounds" />
          </mxGeometry>
        </mxCell>
        <mxCell id="71NfUQhNIwmWo0_34UYC-23" style="shape=tableRow;horizontal=0;startSize=0;swimlaneHead=0;swimlaneBody=0;strokeColor=inherit;top=0;left=0;bottom=0;right=0;collapsible=0;dropTarget=0;fillColor=none;points=[[0,0.5],[1,0.5]];portConstraint=eastwest;fontSize=16;" vertex="1" parent="71NfUQhNIwmWo0_34UYC-18">
          <mxGeometry y="110" width="250" height="80" as="geometry" />
        </mxCell>
        <mxCell id="71NfUQhNIwmWo0_34UYC-24" style="shape=partialRectangle;html=1;whiteSpace=wrap;connectable=0;strokeColor=inherit;overflow=hidden;fillColor=none;top=0;left=0;bottom=0;right=0;pointerEvents=1;fontSize=16;" vertex="1" parent="71NfUQhNIwmWo0_34UYC-23">
          <mxGeometry width="83" height="80" as="geometry">
            <mxRectangle width="83" height="80" as="alternateBounds" />
          </mxGeometry>
        </mxCell>
        <mxCell id="71NfUQhNIwmWo0_34UYC-25" style="shape=partialRectangle;html=1;whiteSpace=wrap;connectable=0;strokeColor=inherit;overflow=hidden;fillColor=none;top=0;left=0;bottom=0;right=0;pointerEvents=1;fontSize=16;" vertex="1" parent="71NfUQhNIwmWo0_34UYC-23">
          <mxGeometry x="83" width="84" height="80" as="geometry">
            <mxRectangle width="84" height="80" as="alternateBounds" />
          </mxGeometry>
        </mxCell>
        <mxCell id="71NfUQhNIwmWo0_34UYC-26" style="shape=partialRectangle;html=1;whiteSpace=wrap;connectable=0;strokeColor=inherit;overflow=hidden;fillColor=none;top=0;left=0;bottom=0;right=0;pointerEvents=1;fontSize=16;" vertex="1" parent="71NfUQhNIwmWo0_34UYC-23">
          <mxGeometry x="167" width="83" height="80" as="geometry">
            <mxRectangle width="83" height="80" as="alternateBounds" />
          </mxGeometry>
        </mxCell>
        <mxCell id="71NfUQhNIwmWo0_34UYC-27" style="shape=tableRow;horizontal=0;startSize=0;swimlaneHead=0;swimlaneBody=0;strokeColor=inherit;top=0;left=0;bottom=0;right=0;collapsible=0;dropTarget=0;fillColor=none;points=[[0,0.5],[1,0.5]];portConstraint=eastwest;fontSize=16;" vertex="1" parent="71NfUQhNIwmWo0_34UYC-18">
          <mxGeometry y="190" width="250" height="80" as="geometry" />
        </mxCell>
        <mxCell id="71NfUQhNIwmWo0_34UYC-28" style="shape=partialRectangle;html=1;whiteSpace=wrap;connectable=0;strokeColor=inherit;overflow=hidden;fillColor=none;top=0;left=0;bottom=0;right=0;pointerEvents=1;fontSize=16;" vertex="1" parent="71NfUQhNIwmWo0_34UYC-27">
          <mxGeometry width="83" height="80" as="geometry">
            <mxRectangle width="83" height="80" as="alternateBounds" />
          </mxGeometry>
        </mxCell>
        <mxCell id="71NfUQhNIwmWo0_34UYC-29" style="shape=partialRectangle;html=1;whiteSpace=wrap;connectable=0;strokeColor=inherit;overflow=hidden;fillColor=none;top=0;left=0;bottom=0;right=0;pointerEvents=1;fontSize=16;" vertex="1" parent="71NfUQhNIwmWo0_34UYC-27">
          <mxGeometry x="83" width="84" height="80" as="geometry">
            <mxRectangle width="84" height="80" as="alternateBounds" />
          </mxGeometry>
        </mxCell>
        <mxCell id="71NfUQhNIwmWo0_34UYC-30" style="shape=partialRectangle;html=1;whiteSpace=wrap;connectable=0;strokeColor=inherit;overflow=hidden;fillColor=none;top=0;left=0;bottom=0;right=0;pointerEvents=1;fontSize=16;" vertex="1" parent="71NfUQhNIwmWo0_34UYC-27">
          <mxGeometry x="167" width="83" height="80" as="geometry">
            <mxRectangle width="83" height="80" as="alternateBounds" />
          </mxGeometry>
        </mxCell>
        <mxCell id="71NfUQhNIwmWo0_34UYC-32" value="" style="shape=ellipse;strokeColor=#008cff;resizable=0;fillColor=none;html=1;" vertex="1" parent="71NfUQhNIwmWo0_34UYC-33">
          <mxGeometry x="223" y="5" width="20" height="20" as="geometry" />
        </mxCell>
      </root>
    </mxGraphModel>
  </diagram>
</mxfile>
